<svg viewBox="-13.100000000000023 -13.076923076923038 1074.1999999999998 706.1538461538463" fill="none" xmlns="http://www.w3.org/2000/svg" xmlns:xlink="http://www.w3.org/1999/xlink" overflow="visible" width="1074.1999999999998px" height="706.1538461538463px"><g id="Master/Scene/Buy Online"><g id="Master/Scene/1 Character" transform="scale(1 1)"><g id="Master/Scene/1 Character"><g id="Background" transform="translate(-3 0) scale(1 1)"><g id="Background/Wireframe 2"><g id="Mobile3" clip-path="url(#clip0_410_561334ff9e96-037a-487c-a85d-e363a8799c7a)"><rect id="Container" x="723" y="91" width="147" height="280" rx="8" fill="#C7D1D9"/><circle id="Touch" cx="796" cy="339" r="15" fill="white"/><g id="Camera"><circle id="Lens" cx="783" cy="108" r="2" fill="white"/><rect id="Sensor" x="790" y="106" width="21" height="4" rx="2" fill="white"/></g><g id="Rows" clip-path="url(#clip1_410_561334ff9e96-037a-487c-a85d-e363a8799c7a)"><g id="Row" clip-path="url(#clip2_410_561334ff9e96-037a-487c-a85d-e363a8799c7a)"><rect id="Container_2" x="737" y="119" width="119" height="50.7647" rx="4" fill="white"/><g id="Text Stuff" clip-path="url(#clip3_410_561334ff9e96-037a-487c-a85d-e363a8799c7a)"><rect id="Label" x="746" y="134.228" width="61" height="7.614" rx="3" fill="#C7D1D9"/><rect id="Label_2" x="746" y="146.918" width="40.9452" height="7.614" rx="3" fill="#C7D1D9"/></g><g id="Check"><circle id="Background" cx="843.282" cy="144.38" r="7" fill="#C7D1D9"/><circle id="Indicator" cx="843.282" cy="144.38" r="3" fill="#F2F2F2"/></g></g><g id="Row_2" clip-path="url(#clip4_410_561334ff9e96-037a-487c-a85d-e363a8799c7a)"><rect id="Background_2" x="737" y="178" width="119" height="37.7059" rx="4" fill="white"/><g id="Text" clip-path="url(#clip5_410_561334ff9e96-037a-487c-a85d-e363a8799c7a)"><rect id="Name" x="776" y="189.314" width="61" height="5.65701" rx="2.82851" fill="#C7D1D9"/><rect id="Name_2" x="776" y="198.742" width="40.9452" height="5.65701" rx="2.82851" fill="#C7D1D9"/></g><circle id="Avatar" cx="758" cy="196.857" r="12" fill="#C5CFD6"/></g><g id="Row_3" clip-path="url(#clip6_410_561334ff9e96-037a-487c-a85d-e363a8799c7a)"><rect id="Container_3" x="737" y="224" width="119" height="37.7059" rx="4" fill="white"/><g id="Text Stuff_2" clip-path="url(#clip7_410_561334ff9e96-037a-487c-a85d-e363a8799c7a)"><rect id="Label_3" x="746" y="235.314" width="61" height="5.65701" rx="2.82851" fill="#C7D1D9"/><rect id="Label_4" x="746" y="244.742" width="40.9452" height="5.65701" rx="2.82851" fill="#C7D1D9"/></g><g id="Check_2"><circle id="Background_3" cx="843.282" cy="242.857" r="7" fill="#C7D1D9"/><circle id="Indicator_2" cx="843.282" cy="242.857" r="3" fill="#F2F2F2"/></g></g><g id="Row_4" clip-path="url(#clip8_410_561334ff9e96-037a-487c-a85d-e363a8799c7a)"><rect id="Background_4" x="737" y="270" width="119" height="37.7059" rx="4" fill="white"/><g id="Text_2" clip-path="url(#clip9_410_561334ff9e96-037a-487c-a85d-e363a8799c7a)"><rect id="Name_3" x="776" y="281.314" width="61" height="5.65701" rx="2.82851" fill="#C7D1D9"/><rect id="Name_4" x="776" y="290.742" width="40.9452" height="5.65701" rx="2.82851" fill="#C7D1D9"/></g><circle id="Avatar_2" cx="758" cy="288.857" r="12" fill="#C5CFD6"/></g></g></g><g id="Mobile3_2" clip-path="url(#clip10_410_561334ff9e96-037a-487c-a85d-e363a8799c7a)"><rect id="Container_4" x="219" y="114" width="159" height="302" rx="8" fill="#F2F2F2"/><circle id="Touch_2" cx="298" cy="382" r="15" fill="white"/><g id="Camera_2"><circle id="Lens_2" cx="285" cy="132" r="2" fill="white"/><rect id="Sensor_2" x="292" y="130" width="21" height="4" rx="2" fill="white"/></g><g id="Rows_2" clip-path="url(#clip11_410_561334ff9e96-037a-487c-a85d-e363a8799c7a)"><g id="Row_5" clip-path="url(#clip12_410_561334ff9e96-037a-487c-a85d-e363a8799c7a)"><rect id="Background_5" x="233" y="142" width="131" height="54" rx="4" fill="white"/><g id="Text_3" clip-path="url(#clip13_410_561334ff9e96-037a-487c-a85d-e363a8799c7a)"><rect id="Name_5" x="272" y="158.2" width="73" height="8.1" rx="3" fill="#C7D1D9"/><rect id="Name_6" x="272" y="171.7" width="49" height="8.1" rx="3" fill="#C7D1D9"/></g><circle id="Avatar_3" cx="254" cy="169" r="12" fill="#C5CFD6"/></g><g id="Row_6" clip-path="url(#clip14_410_561334ff9e96-037a-487c-a85d-e363a8799c7a)"><rect id="Background_6" x="233" y="204" width="131" height="42" rx="4" fill="white"/><g id="Text_4" clip-path="url(#clip15_410_561334ff9e96-037a-487c-a85d-e363a8799c7a)"><rect id="Name_7" x="272" y="216.6" width="73" height="6.3" rx="3" fill="#C7D1D9"/><rect id="Name_8" x="272" y="227.1" width="49" height="6.3" rx="3" fill="#C7D1D9"/></g><circle id="Avatar_4" cx="254" cy="225" r="12" fill="#C5CFD6"/></g><g id="Row_7" clip-path="url(#clip16_410_561334ff9e96-037a-487c-a85d-e363a8799c7a)"><rect id="Background_7" x="233" y="254" width="131" height="42" rx="4" fill="white"/><g id="Text_5" clip-path="url(#clip17_410_561334ff9e96-037a-487c-a85d-e363a8799c7a)"><rect id="Name_9" x="272" y="266.6" width="73" height="6.3" rx="3" fill="#C7D1D9"/><rect id="Name_10" x="272" y="277.1" width="49" height="6.3" rx="3" fill="#C7D1D9"/></g><circle id="Avatar_5" cx="254" cy="275" r="12" fill="#AFB9C5"/></g><g id="Row_8" clip-path="url(#clip18_410_561334ff9e96-037a-487c-a85d-e363a8799c7a)"><rect id="Background_8" x="233" y="304" width="131" height="42" rx="4" fill="white"/><g id="Text_6" clip-path="url(#clip19_410_561334ff9e96-037a-487c-a85d-e363a8799c7a)"><rect id="Name_11" x="272" y="316.6" width="73" height="6.3" rx="3" fill="#C7D1D9"/><rect id="Name_12" x="272" y="327.1" width="49" height="6.3" rx="3" fill="#C7D1D9"/></g><circle id="Avatar_6" cx="254" cy="325" r="12" fill="#C5CFD6"/></g></g></g><g id="Web" clip-path="url(#clip20_410_561334ff9e96-037a-487c-a85d-e363a8799c7a)"><rect id="Container_5" x="384" y="191" width="335" height="346" rx="8" fill="#F2F2F2"/><rect id="Background_9" x="633" y="234" width="70" height="81" rx="8" fill="white"/><g id="Profile Info"><circle id="Avatar_7" cx="668" cy="265" r="16" fill="#C7D1D9"/><rect id="Name_13" x="643" y="285" width="50" height="6" rx="3" fill="#C7D1D9"/><rect id="Name_14" x="651" y="295" width="34" height="6" rx="3" fill="#C7D1D9"/></g><path id="Header" d="M384 199C384 194.582 387.582 191 392 191H711C715.418 191 719 194.582 719 199V218H384V199Z" fill="#C5CFD6"/><g id="Buttons"><circle id="buttons" cx="397" cy="205" r="4" fill="#F2F2F2"/><circle id="buttons_2" cx="409" cy="205" r="4" fill="#F2F2F2"/><circle id="buttons_3" cx="421" cy="205" r="4" fill="#F2F2F2"/></g><g id="Components" clip-path="url(#clip21_410_561334ff9e96-037a-487c-a85d-e363a8799c7a)"><rect id="Background_10" x="633" y="323" width="70" height="194" rx="8" fill="white"/><g id="Rows_3" clip-path="url(#clip22_410_561334ff9e96-037a-487c-a85d-e363a8799c7a)"><rect id="Data" x="651" y="341" width="34" height="26" rx="4" fill="#C7D1D9"/><rect id="Data_2" x="651" y="375" width="34" height="25" rx="4" fill="#AFB9C5"/><rect id="Data_3" x="651" y="408" width="34" height="25" rx="4" fill="#C7D1D9"/><rect id="Data_4" x="651" y="474" width="34" height="25" rx="4" fill="#C7D1D9"/><rect id="Data_5" x="651" y="441" width="34" height="25" rx="4" fill="#C5CFD6"/></g></g><g id="Rows_4" clip-path="url(#clip23_410_561334ff9e96-037a-487c-a85d-e363a8799c7a)"><g id="Row_9" clip-path="url(#clip24_410_561334ff9e96-037a-487c-a85d-e363a8799c7a)"><rect id="Container_6" x="400" y="235" width="225" height="47" rx="4" fill="white"/><g id="Text Stuff_3" clip-path="url(#clip25_410_561334ff9e96-037a-487c-a85d-e363a8799c7a)"><rect id="Label_5" x="409" y="249.1" width="167" height="7.05" rx="3" fill="#C7D1D9"/><rect id="Label_6" x="409" y="260.85" width="112.096" height="7.05" rx="3" fill="#C7D1D9"/></g><g id="Check_3"><circle id="Background_11" cx="600.954" cy="258.5" r="7" fill="#C7D1D9"/><circle id="Indicator_3" cx="600.954" cy="258.5" r="3" fill="#F2F2F2"/></g></g><g id="Row_10" clip-path="url(#clip26_410_561334ff9e96-037a-487c-a85d-e363a8799c7a)"><rect id="Container_7" x="400" y="290" width="225" height="39" rx="4" fill="white"/><g id="Text Stuff_4" clip-path="url(#clip27_410_561334ff9e96-037a-487c-a85d-e363a8799c7a)"><rect id="Label_7" x="409" y="301.7" width="167" height="5.85" rx="2.925" fill="#C7D1D9"/><rect id="Label_8" x="409" y="311.45" width="112.096" height="5.85" rx="2.925" fill="#C7D1D9"/></g><g id="Check_4"><circle id="Background_12" cx="600.954" cy="309.5" r="7" fill="#C7D1D9"/><circle id="Indicator_4" cx="600.954" cy="309.5" r="3" fill="#F2F2F2"/></g></g><g id="Row_11" clip-path="url(#clip28_410_561334ff9e96-037a-487c-a85d-e363a8799c7a)"><rect id="Container_8" x="400" y="337" width="225" height="39" rx="4" fill="white"/><g id="Text Stuff_5" clip-path="url(#clip29_410_561334ff9e96-037a-487c-a85d-e363a8799c7a)"><rect id="Label_9" x="409" y="348.7" width="167" height="5.85" rx="2.925" fill="#C7D1D9"/><rect id="Label_10" x="409" y="358.45" width="112.096" height="5.85" rx="2.925" fill="#C7D1D9"/></g><g id="Check_5"><circle id="Background_13" cx="600.954" cy="356.5" r="7" fill="#C7D1D9"/><circle id="Indicator_5" cx="600.954" cy="356.5" r="3" fill="#AFB9C5"/></g></g><g id="Row_12" clip-path="url(#clip30_410_561334ff9e96-037a-487c-a85d-e363a8799c7a)"><rect id="Container_9" x="400" y="478" width="225" height="39" rx="4" fill="white"/><g id="Text Stuff_6" clip-path="url(#clip31_410_561334ff9e96-037a-487c-a85d-e363a8799c7a)"><rect id="Label_11" x="409" y="489.7" width="167" height="5.85" rx="2.925" fill="#C7D1D9"/><rect id="Label_12" x="409" y="499.45" width="112.096" height="5.85" rx="2.925" fill="#C7D1D9"/></g><g id="Check_6"><circle id="Background_14" cx="600.954" cy="497.5" r="7" fill="#C7D1D9"/><circle id="Indicator_6" cx="600.954" cy="497.5" r="3" fill="#F2F2F2"/></g></g><g id="Row_13" clip-path="url(#clip32_410_561334ff9e96-037a-487c-a85d-e363a8799c7a)"><rect id="Container_10" x="400" y="431" width="225" height="39" rx="4" fill="white"/><g id="Text Stuff_7" clip-path="url(#clip33_410_561334ff9e96-037a-487c-a85d-e363a8799c7a)"><rect id="Label_13" x="409" y="442.7" width="167" height="5.85" rx="2.925" fill="#C7D1D9"/><rect id="Label_14" x="409" y="452.45" width="112.096" height="5.85" rx="2.925" fill="#C7D1D9"/></g><g id="Check_7"><circle id="Background_15" cx="600.954" cy="450.5" r="7" fill="#C7D1D9"/><circle id="Indicator_7" cx="600.954" cy="450.5" r="3" fill="#F2F2F2"/></g></g><g id="Row_14" clip-path="url(#clip34_410_561334ff9e96-037a-487c-a85d-e363a8799c7a)"><rect id="Container_11" x="400" y="384" width="225" height="39" rx="4" fill="white"/><g id="Text Stuff_8" clip-path="url(#clip35_410_561334ff9e96-037a-487c-a85d-e363a8799c7a)"><rect id="Label_15" x="409" y="395.7" width="167" height="5.85" rx="2.925" fill="#C7D1D9"/><rect id="Label_16" x="409" y="405.45" width="112.096" height="5.85" rx="2.925" fill="#C7D1D9"/></g><g id="Check_8"><circle id="Background_16" cx="600.954" cy="403.5" r="7" fill="#C7D1D9"/><circle id="Indicator_8" cx="600.954" cy="403.5" r="3" fill="#F2F2F2"/></g></g></g></g><g id="Graph"><rect id="Value" x="520" y="146" width="6" height="25" rx="3" fill="#C7D1D9"/><rect id="Value_2" x="534" y="130" width="6" height="41" rx="3" fill="#C7D1D9"/><rect id="Value_3" x="548" y="122" width="6" height="49" rx="3" fill="#C7D1D9"/><rect id="Value_4" x="562" y="130" width="6" height="41" rx="3" fill="#C7D1D9"/><rect id="Value_5" x="576" y="114" width="6" height="57" rx="3" fill="#C5CFD6"/></g><g id="Chart"><path id="Value_6" fill-rule="evenodd" clip-rule="evenodd" d="M838.766 504.179C836.845 506.219 834.123 507.5 831.095 507.5C825.278 507.5 820.562 502.799 820.562 497C820.562 491.201 825.278 486.5 831.095 486.5V467C814.546 467 801 480.503 801 497C801 513.497 814.546 527 831.095 527C839.788 527 847.645 523.334 853 517.502L838.766 504.179Z" fill="#F2F2F2"/><path id="Value_7" fill-rule="evenodd" clip-rule="evenodd" d="M831 467V486.5C836.799 486.5 841.5 491.201 841.5 497H861C861 480.503 847.497 467 831 467Z" fill="#AFB9C5"/><path id="Value_8" fill-rule="evenodd" clip-rule="evenodd" d="M841.097 497C841.097 500.407 839.492 503.435 837 505.391L849.262 521C856.399 515.412 861 506.749 861 497H841.097Z" fill="#C5CFD6"/></g><g id="Chart_2"><path id="Value_9" fill-rule="evenodd" clip-rule="evenodd" d="M170.051 259.504C168.573 261.068 166.479 262.05 164.15 262.05C159.675 262.05 156.048 258.446 156.048 254C156.048 249.554 159.675 245.95 164.15 245.95V231C151.42 231 141 241.352 141 254C141 266.648 151.42 277 164.15 277C170.837 277 176.88 274.189 181 269.718L170.051 259.504Z" fill="#F2F2F2"/><path id="Value_10" fill-rule="evenodd" clip-rule="evenodd" d="M164 231V245.95C168.446 245.95 172.05 249.554 172.05 254H187C187 241.352 176.648 231 164 231Z" fill="#AFB9C5"/><path id="Value_11" fill-rule="evenodd" clip-rule="evenodd" d="M172.073 254C172.073 256.555 170.869 258.827 169 260.293L178.196 272C183.55 267.809 187 261.312 187 254H172.073Z" fill="#C5CFD6"/></g><g id="Image"><path id="Fill 35" fill-rule="evenodd" clip-rule="evenodd" d="M866.007 240.986C866.003 240.996 865.999 241.006 865.993 241.018C865.999 241.008 866.007 240.968 866.007 240.986" fill="#C5CFD6"/><path id="Fill 37" fill-rule="evenodd" clip-rule="evenodd" d="M865.998 241.001C865.998 241.003 865.996 241.007 865.996 241.011C865.996 241.001 866.014 240.971 865.998 241.001" fill="#C5CFD6"/><path id="Fill 39" fill-rule="evenodd" clip-rule="evenodd" d="M866.067 240.832C866.053 240.872 866.035 240.91 866.019 240.95C866.027 240.93 866.035 240.914 866.043 240.894C865.835 241.414 865.967 241.076 866.067 240.832" fill="#C5CFD6"/><path id="Fill 41" fill-rule="evenodd" clip-rule="evenodd" d="M866.022 240.953C866.014 240.971 866.006 240.991 865.998 241.009C865.94 241.121 866.022 240.953 866.022 240.953" fill="#C5CFD6"/><path id="Fill 45" fill-rule="evenodd" clip-rule="evenodd" d="M865.999 241.002C865.999 241 865.999 241 866.001 240.998C865.999 241 865.999 241 865.999 241.002" fill="#C5CFD6"/><path id="Fill 47" fill-rule="evenodd" clip-rule="evenodd" d="M865.99 241.016C865.978 241.04 866.046 240.924 865.99 241.016Z" fill="#C5CFD6"/><path id="Fill 49" fill-rule="evenodd" clip-rule="evenodd" d="M865.998 241.002L866.002 240.998C866 241 866 241.002 865.998 241.002" fill="#C5CFD6"/><rect id="Photo Background" x="818" y="189" width="95" height="63" rx="4" fill="#C5CFD6"/><path id="Mountains" fill-rule="evenodd" clip-rule="evenodd" d="M854 207L826 252H882L854 207Z" fill="#AFB9C5"/><path id="Mountains_2" fill-rule="evenodd" clip-rule="evenodd" d="M881.5 219L857 252H906L881.5 219Z" fill="#AFB9C5"/><circle id="Sun" cx="892" cy="210" r="9" fill="white"/></g><g id="Image_2"><path id="Fill 35_2" fill-rule="evenodd" clip-rule="evenodd" d="M218.993 556.986C218.997 556.996 219.001 557.006 219.007 557.018C219.001 557.008 218.993 556.968 218.993 556.986" fill="#C5CFD6"/><path id="Fill 37_2" fill-rule="evenodd" clip-rule="evenodd" d="M219.002 557.001C219.002 557.003 219.004 557.007 219.004 557.011C219.004 557.001 218.986 556.971 219.002 557.001" fill="#C5CFD6"/><path id="Fill 39_2" fill-rule="evenodd" clip-rule="evenodd" d="M218.933 556.832C218.947 556.872 218.965 556.91 218.981 556.95C218.973 556.93 218.965 556.914 218.957 556.894C219.165 557.414 219.033 557.076 218.933 556.832" fill="#C5CFD6"/><path id="Fill 41_2" fill-rule="evenodd" clip-rule="evenodd" d="M218.978 556.953C218.986 556.971 218.994 556.991 219.002 557.009C219.06 557.121 218.978 556.953 218.978 556.953" fill="#C5CFD6"/><path id="Fill 45_2" fill-rule="evenodd" clip-rule="evenodd" d="M219.001 557.002C219.001 557 219.001 557 218.999 556.998C219.001 557 219.001 557 219.001 557.002" fill="#C5CFD6"/><path id="Fill 47_2" fill-rule="evenodd" clip-rule="evenodd" d="M219.01 557.016C219.022 557.04 218.954 556.924 219.01 557.016Z" fill="#C5CFD6"/><path id="Fill 49_2" fill-rule="evenodd" clip-rule="evenodd" d="M219.002 557.002L218.998 556.998C219 557 219 557.002 219.002 557.002" fill="#C5CFD6"/><rect id="Photo Background_2" width="142" height="94" rx="4" transform="matrix(-1 0 0 1 290 480)" fill="#C7D1D9"/><path id="Mountains_3" fill-rule="evenodd" clip-rule="evenodd" d="M237.274 507L278.329 574H196.219L237.274 507Z" fill="#AFB9C5"/><path id="Mountains_4" fill-rule="evenodd" clip-rule="evenodd" d="M194.944 524.947L231.239 574H158.649L194.944 524.947Z" fill="#C5CFD6"/><circle id="Sun_2" cx="13.5" cy="13.5" r="13.5" transform="matrix(-1 0 0 1 193 498)" fill="white"/></g></g><defs><clipPath id="clip0_410_561334ff9e96-037a-487c-a85d-e363a8799c7a"><rect width="147" height="280" fill="white" transform="translate(723 91)"/></clipPath><clipPath id="clip1_410_561334ff9e96-037a-487c-a85d-e363a8799c7a"><rect width="119" height="189" fill="white" transform="translate(737 119)"/></clipPath><clipPath id="clip2_410_561334ff9e96-037a-487c-a85d-e363a8799c7a"><rect width="119" height="51" fill="white" transform="translate(737 119)"/></clipPath><clipPath id="clip3_410_561334ff9e96-037a-487c-a85d-e363a8799c7a"><rect width="61" height="20.4" fill="white" transform="translate(746 134.228)"/></clipPath><clipPath id="clip4_410_561334ff9e96-037a-487c-a85d-e363a8799c7a"><rect width="119" height="38" fill="white" transform="translate(737 178)"/></clipPath><clipPath id="clip5_410_561334ff9e96-037a-487c-a85d-e363a8799c7a"><rect width="61" height="15.5897" fill="white" transform="translate(776 189.314)"/></clipPath><clipPath id="clip6_410_561334ff9e96-037a-487c-a85d-e363a8799c7a"><rect width="119" height="38" fill="white" transform="translate(737 224)"/></clipPath><clipPath id="clip7_410_561334ff9e96-037a-487c-a85d-e363a8799c7a"><rect width="61" height="15.5897" fill="white" transform="translate(746 235.314)"/></clipPath><clipPath id="clip8_410_561334ff9e96-037a-487c-a85d-e363a8799c7a"><rect width="119" height="38" fill="white" transform="translate(737 270)"/></clipPath><clipPath id="clip9_410_561334ff9e96-037a-487c-a85d-e363a8799c7a"><rect width="61" height="15.5897" fill="white" transform="translate(776 281.314)"/></clipPath><clipPath id="clip10_410_561334ff9e96-037a-487c-a85d-e363a8799c7a"><rect width="159" height="302" fill="white" transform="translate(219 114)"/></clipPath><clipPath id="clip11_410_561334ff9e96-037a-487c-a85d-e363a8799c7a"><rect width="131" height="204" fill="white" transform="translate(233 142)"/></clipPath><clipPath id="clip12_410_561334ff9e96-037a-487c-a85d-e363a8799c7a"><rect width="131" height="54" fill="white" transform="translate(233 142)"/></clipPath><clipPath id="clip13_410_561334ff9e96-037a-487c-a85d-e363a8799c7a"><rect width="73" height="21.6" fill="white" transform="translate(272 158.2)"/></clipPath><clipPath id="clip14_410_561334ff9e96-037a-487c-a85d-e363a8799c7a"><rect width="131" height="42" fill="white" transform="translate(233 204)"/></clipPath><clipPath id="clip15_410_561334ff9e96-037a-487c-a85d-e363a8799c7a"><rect width="73" height="16.8" fill="white" transform="translate(272 216.6)"/></clipPath><clipPath id="clip16_410_561334ff9e96-037a-487c-a85d-e363a8799c7a"><rect width="131" height="42" fill="white" transform="translate(233 254)"/></clipPath><clipPath id="clip17_410_561334ff9e96-037a-487c-a85d-e363a8799c7a"><rect width="73" height="16.8" fill="white" transform="translate(272 266.6)"/></clipPath><clipPath id="clip18_410_561334ff9e96-037a-487c-a85d-e363a8799c7a"><rect width="131" height="42" fill="white" transform="translate(233 304)"/></clipPath><clipPath id="clip19_410_561334ff9e96-037a-487c-a85d-e363a8799c7a"><rect width="73" height="16.8" fill="white" transform="translate(272 316.6)"/></clipPath><clipPath id="clip20_410_561334ff9e96-037a-487c-a85d-e363a8799c7a"><rect width="335" height="346" fill="white" transform="translate(384 191)"/></clipPath><clipPath id="clip21_410_561334ff9e96-037a-487c-a85d-e363a8799c7a"><rect width="70" height="194" fill="white" transform="translate(633 323)"/></clipPath><clipPath id="clip22_410_561334ff9e96-037a-487c-a85d-e363a8799c7a"><rect width="34" height="158" fill="white" transform="translate(651 341)"/></clipPath><clipPath id="clip23_410_561334ff9e96-037a-487c-a85d-e363a8799c7a"><rect width="225" height="282" fill="white" transform="translate(400 235)"/></clipPath><clipPath id="clip24_410_561334ff9e96-037a-487c-a85d-e363a8799c7a"><rect width="225" height="47" fill="white" transform="translate(400 235)"/></clipPath><clipPath id="clip25_410_561334ff9e96-037a-487c-a85d-e363a8799c7a"><rect width="167" height="18.8" fill="white" transform="translate(409 249.1)"/></clipPath><clipPath id="clip26_410_561334ff9e96-037a-487c-a85d-e363a8799c7a"><rect width="225" height="39" fill="white" transform="translate(400 290)"/></clipPath><clipPath id="clip27_410_561334ff9e96-037a-487c-a85d-e363a8799c7a"><rect width="167" height="15.6" fill="white" transform="translate(409 301.7)"/></clipPath><clipPath id="clip28_410_561334ff9e96-037a-487c-a85d-e363a8799c7a"><rect width="225" height="39" fill="white" transform="translate(400 337)"/></clipPath><clipPath id="clip29_410_561334ff9e96-037a-487c-a85d-e363a8799c7a"><rect width="167" height="15.6" fill="white" transform="translate(409 348.7)"/></clipPath><clipPath id="clip30_410_561334ff9e96-037a-487c-a85d-e363a8799c7a"><rect width="225" height="39" fill="white" transform="translate(400 478)"/></clipPath><clipPath id="clip31_410_561334ff9e96-037a-487c-a85d-e363a8799c7a"><rect width="167" height="15.6" fill="white" transform="translate(409 489.7)"/></clipPath><clipPath id="clip32_410_561334ff9e96-037a-487c-a85d-e363a8799c7a"><rect width="225" height="39" fill="white" transform="translate(400 431)"/></clipPath><clipPath id="clip33_410_561334ff9e96-037a-487c-a85d-e363a8799c7a"><rect width="167" height="15.6" fill="white" transform="translate(409 442.7)"/></clipPath><clipPath id="clip34_410_561334ff9e96-037a-487c-a85d-e363a8799c7a"><rect width="225" height="39" fill="white" transform="translate(400 384)"/></clipPath><clipPath id="clip35_410_561334ff9e96-037a-487c-a85d-e363a8799c7a"><rect width="167" height="15.6" fill="white" transform="translate(409 395.7)"/></clipPath></defs></g><g id="Master/Pose/Standing" transform="translate(374 214) scale(1 1)"><g id="Master/Pose/Standing"><g id="Head/Front" transform="translate(82 0) scale(1 1)"><g id="Head/Front/Short 1"><g id="Head"><path id="SKIN" fill-rule="evenodd" clip-rule="evenodd" d="M73.9354 75.2443C80.411 79.1475 86.7736 81.0333 89.7603 80.2635C97.2496 78.333 97.9382 50.9351 92.1433 40.1339C86.3485 29.3328 56.5583 24.625 55.0568 46.0255C54.5356 53.4529 57.6544 60.0814 62.2623 65.4901L54 104H78L73.9354 75.2443Z" fill="#915b3c"/></g><path id="Hair" fill-rule="evenodd" clip-rule="evenodd" d="M99.5021 28.3021C98.8523 28.7065 97.7931 28.9035 96.3287 28.924C94.8827 28.9443 93.1285 28.7934 91.1514 28.575C90.3335 28.4846 89.4786 28.3827 88.595 28.2775C85.2288 27.8764 81.4443 27.4255 77.6898 27.3698C72.9492 27.2995 68.1776 27.8553 64.2663 29.98C60.5531 31.997 57.6617 35.4028 56.289 40.894C50.7773 52.0884 55.6269 63.4384 62.0804 67.4111C63.8354 65.2777 65.3704 63.2092 66.7422 61.2273C65.6653 60.1427 65 58.649 65 56.9999C65 53.6862 67.6863 50.9999 71 50.9999C71.6967 50.9999 72.3657 51.1186 72.9878 51.337C75.1694 47.734 77.0463 44.7791 79.2762 42.7247C79.5059 42.6609 79.732 42.5956 79.9539 42.5288C88.222 43.4888 93.6694 42.2964 96.881 39.6709C100.136 37.01 100.969 32.9876 100.26 28.6461L100.139 27.9059L99.5021 28.3021ZM80.6632 41.6012C88.4873 42.4238 93.4202 41.2085 96.2481 38.8967C98.9731 36.669 99.853 33.327 99.3692 29.4737C98.5426 29.7871 97.5021 29.9076 96.3427 29.9239C94.8296 29.9451 93.0218 29.7877 91.0416 29.5689C90.2073 29.4767 89.3411 29.3736 88.45 29.2675L88.4498 29.2674C85.2238 28.8832 81.6709 28.4601 78.122 28.3782C83.5599 29.5652 87.6869 33.6303 87.6869 39.5155C84.8107 39.5155 82.5818 40.2538 80.6632 41.6012ZM66.7861 29.9242C66.0805 30.1932 65.3982 30.5031 64.7436 30.8587C62.4983 32.0784 60.5595 33.8454 59.1184 36.3754C59.3039 36.1343 59.495 35.8938 59.6918 35.6539C61.8251 33.0523 64.2612 31.1692 66.7861 29.9242Z" fill="#4a312c"/></g></g><g id="Lower Body/Standing" transform="translate(0 187) scale(1 1)"><g id="Lower Body/Standing/Skinny Jeans"><path id="Leg" fill-rule="evenodd" clip-rule="evenodd" d="M128 0L164.255 127.227L190.707 221H210L181.891 0H128Z" fill="#191847"/><path id="Leg" fill-rule="evenodd" clip-rule="evenodd" d="M118.304 0C117.466 65.5742 114.606 101.34 113.726 107.298C112.845 113.256 99.5322 151.156 73.7864 221H93.7727C126.549 153.997 144.846 116.096 148.663 107.298C152.479 98.4996 164.259 62.7336 182 0H118.304Z" fill="#393f82"/><path id="Shoe" fill-rule="evenodd" clip-rule="evenodd" d="M72 239L73 218L94 218C108.936 228.5 133 235 133 235V239H95L82 237V239H72Z" fill="#191847"/><path id="Shoe_2" fill-rule="evenodd" clip-rule="evenodd" d="M188 239L189 218L210 218C224.936 228.5 249 235 249 235V239H211L198 237V239H188Z" fill="#191847"/></g></g><g id="Upper Body" transform="translate(22 82) scale(1 1)"><g id="Upper Body/Jacket"><path id="SKIN" fill-rule="evenodd" clip-rule="evenodd" d="M222.372 116.758L194.044 89.1225L184.636 105.402L214.093 122.77C221.479 134.405 225.817 139.432 227.107 137.852C228.195 136.519 227.696 135.058 227.237 133.713C226.879 132.665 226.546 131.687 227.004 130.894C228.051 129.082 233.965 130.119 239.535 131.344C245.106 132.568 243.817 129.832 242.633 128.404C237.368 124.155 230.615 120.273 222.372 116.758ZM55.398 156.908C58.3285 150.963 68.308 93.0199 68.308 93.0199L89.2054 93.1021C89.2054 93.1021 69.8506 155.583 68.308 159.406C66.3041 164.372 69.708 171.587 72.0162 176.48C72.3733 177.237 72.7041 177.938 72.9847 178.567C69.782 180 68.2435 178.268 66.6216 176.442C64.7896 174.379 62.8512 172.197 58.288 174.319C56.525 175.14 54.8568 176.109 53.2269 177.057C47.5969 180.329 42.4249 183.336 35.3891 178.994C34.2737 178.306 33.0514 175.715 36.0047 173.69C43.3624 168.645 53.9654 159.815 55.398 156.908Z" fill="#915b3c"/><path id="Coat Back" fill-rule="evenodd" clip-rule="evenodd" d="M127.695 5.33202L136.342 3.84886C151.23 41.0391 177.222 74.8311 214.318 105.225L186.286 139.281C149.194 96.0046 126.33 51.3548 127.695 5.33202Z" fill="#c5cfd6"/><path id="Shirt" fill-rule="evenodd" clip-rule="evenodd" d="M90 114H167C167 114 140.241 48.9377 140.241 3.46073L117.014 0C98.7599 29.3584 93.6048 65.5046 90 114Z" fill="#C7D1D9"/><path id="Coat Front" fill-rule="evenodd" clip-rule="evenodd" d="M55 147C63.4209 51.9959 116.504 0 116.504 0L116.522 0.0164189C116.525 0.010945 116.529 0.00547202 116.532 0H118.048C120.769 0.0937097 126.338 0.337673 126.338 0.337673L131.95 16.3769C132.841 45.7102 142.351 134.606 142.351 134.606H91.9499C92.0356 138.682 92.2255 142.815 92.5306 147H55Z" fill="#f2f2f2"/><path id="Shade" fill-rule="evenodd" clip-rule="evenodd" d="M91.9584 135C91.5561 117.25 93.1308 100.584 95.7576 85.5019C97.1315 103.399 100.003 124.933 106 135H91.9584Z" fill="black" fill-opacity="0.1"/><path id="Light" fill-rule="evenodd" clip-rule="evenodd" d="M103.111 104L128 92.4293V104H103.111Z" fill="white" fill-opacity="0.2"/></g></g></g></g></g></g></g></svg>