<svg viewBox="-13.100000000000023 -13.076923076923038 1074.1999999999998 706.1538461538463" fill="none" xmlns="http://www.w3.org/2000/svg" xmlns:xlink="http://www.w3.org/1999/xlink" overflow="visible" width="1074.1999999999998px" height="706.1538461538463px"><g id="Master/Scene/Research"><g id="Master/Scene/1 Character" transform="scale(1 1)"><g id="Master/Scene/1 Character"><g id="Background" transform="translate(-3 0) scale(1 1)"><g id="Background/Wireframe 2"><g id="Mobile3" clip-path="url(#clip0_410_561334ff9e96-037a-487c-a85d-e363a8799c7a)"><rect id="Container" x="723" y="91" width="147" height="280" rx="8" fill="#C7D1D9"/><circle id="Touch" cx="796" cy="339" r="15" fill="white"/><g id="Camera"><circle id="Lens" cx="783" cy="108" r="2" fill="white"/><rect id="Sensor" x="790" y="106" width="21" height="4" rx="2" fill="white"/></g><g id="Rows" clip-path="url(#clip1_410_561334ff9e96-037a-487c-a85d-e363a8799c7a)"><g id="Row" clip-path="url(#clip2_410_561334ff9e96-037a-487c-a85d-e363a8799c7a)"><rect id="Container_2" x="737" y="119" width="119" height="50.7647" rx="4" fill="white"/><g id="Text Stuff" clip-path="url(#clip3_410_561334ff9e96-037a-487c-a85d-e363a8799c7a)"><rect id="Label" x="746" y="134.228" width="61" height="7.614" rx="3" fill="#C7D1D9"/><rect id="Label_2" x="746" y="146.918" width="40.9452" height="7.614" rx="3" fill="#C7D1D9"/></g><g id="Check"><circle id="Background" cx="843.282" cy="144.38" r="7" fill="#C7D1D9"/><circle id="Indicator" cx="843.282" cy="144.38" r="3" fill="#F2F2F2"/></g></g><g id="Row_2" clip-path="url(#clip4_410_561334ff9e96-037a-487c-a85d-e363a8799c7a)"><rect id="Background_2" x="737" y="178" width="119" height="37.7059" rx="4" fill="white"/><g id="Text" clip-path="url(#clip5_410_561334ff9e96-037a-487c-a85d-e363a8799c7a)"><rect id="Name" x="776" y="189.314" width="61" height="5.65701" rx="2.82851" fill="#C7D1D9"/><rect id="Name_2" x="776" y="198.742" width="40.9452" height="5.65701" rx="2.82851" fill="#C7D1D9"/></g><circle id="Avatar" cx="758" cy="196.857" r="12" fill="#C5CFD6"/></g><g id="Row_3" clip-path="url(#clip6_410_561334ff9e96-037a-487c-a85d-e363a8799c7a)"><rect id="Container_3" x="737" y="224" width="119" height="37.7059" rx="4" fill="white"/><g id="Text Stuff_2" clip-path="url(#clip7_410_561334ff9e96-037a-487c-a85d-e363a8799c7a)"><rect id="Label_3" x="746" y="235.314" width="61" height="5.65701" rx="2.82851" fill="#C7D1D9"/><rect id="Label_4" x="746" y="244.742" width="40.9452" height="5.65701" rx="2.82851" fill="#C7D1D9"/></g><g id="Check_2"><circle id="Background_3" cx="843.282" cy="242.857" r="7" fill="#C7D1D9"/><circle id="Indicator_2" cx="843.282" cy="242.857" r="3" fill="#F2F2F2"/></g></g><g id="Row_4" clip-path="url(#clip8_410_561334ff9e96-037a-487c-a85d-e363a8799c7a)"><rect id="Background_4" x="737" y="270" width="119" height="37.7059" rx="4" fill="white"/><g id="Text_2" clip-path="url(#clip9_410_561334ff9e96-037a-487c-a85d-e363a8799c7a)"><rect id="Name_3" x="776" y="281.314" width="61" height="5.65701" rx="2.82851" fill="#C7D1D9"/><rect id="Name_4" x="776" y="290.742" width="40.9452" height="5.65701" rx="2.82851" fill="#C7D1D9"/></g><circle id="Avatar_2" cx="758" cy="288.857" r="12" fill="#C5CFD6"/></g></g></g><g id="Mobile3_2" clip-path="url(#clip10_410_561334ff9e96-037a-487c-a85d-e363a8799c7a)"><rect id="Container_4" x="219" y="114" width="159" height="302" rx="8" fill="#F2F2F2"/><circle id="Touch_2" cx="298" cy="382" r="15" fill="white"/><g id="Camera_2"><circle id="Lens_2" cx="285" cy="132" r="2" fill="white"/><rect id="Sensor_2" x="292" y="130" width="21" height="4" rx="2" fill="white"/></g><g id="Rows_2" clip-path="url(#clip11_410_561334ff9e96-037a-487c-a85d-e363a8799c7a)"><g id="Row_5" clip-path="url(#clip12_410_561334ff9e96-037a-487c-a85d-e363a8799c7a)"><rect id="Background_5" x="233" y="142" width="131" height="54" rx="4" fill="white"/><g id="Text_3" clip-path="url(#clip13_410_561334ff9e96-037a-487c-a85d-e363a8799c7a)"><rect id="Name_5" x="272" y="158.2" width="73" height="8.1" rx="3" fill="#C7D1D9"/><rect id="Name_6" x="272" y="171.7" width="49" height="8.1" rx="3" fill="#C7D1D9"/></g><circle id="Avatar_3" cx="254" cy="169" r="12" fill="#C5CFD6"/></g><g id="Row_6" clip-path="url(#clip14_410_561334ff9e96-037a-487c-a85d-e363a8799c7a)"><rect id="Background_6" x="233" y="204" width="131" height="42" rx="4" fill="white"/><g id="Text_4" clip-path="url(#clip15_410_561334ff9e96-037a-487c-a85d-e363a8799c7a)"><rect id="Name_7" x="272" y="216.6" width="73" height="6.3" rx="3" fill="#C7D1D9"/><rect id="Name_8" x="272" y="227.1" width="49" height="6.3" rx="3" fill="#C7D1D9"/></g><circle id="Avatar_4" cx="254" cy="225" r="12" fill="#C5CFD6"/></g><g id="Row_7" clip-path="url(#clip16_410_561334ff9e96-037a-487c-a85d-e363a8799c7a)"><rect id="Background_7" x="233" y="254" width="131" height="42" rx="4" fill="white"/><g id="Text_5" clip-path="url(#clip17_410_561334ff9e96-037a-487c-a85d-e363a8799c7a)"><rect id="Name_9" x="272" y="266.6" width="73" height="6.3" rx="3" fill="#C7D1D9"/><rect id="Name_10" x="272" y="277.1" width="49" height="6.3" rx="3" fill="#C7D1D9"/></g><circle id="Avatar_5" cx="254" cy="275" r="12" fill="#AFB9C5"/></g><g id="Row_8" clip-path="url(#clip18_410_561334ff9e96-037a-487c-a85d-e363a8799c7a)"><rect id="Background_8" x="233" y="304" width="131" height="42" rx="4" fill="white"/><g id="Text_6" clip-path="url(#clip19_410_561334ff9e96-037a-487c-a85d-e363a8799c7a)"><rect id="Name_11" x="272" y="316.6" width="73" height="6.3" rx="3" fill="#C7D1D9"/><rect id="Name_12" x="272" y="327.1" width="49" height="6.3" rx="3" fill="#C7D1D9"/></g><circle id="Avatar_6" cx="254" cy="325" r="12" fill="#C5CFD6"/></g></g></g><g id="Web" clip-path="url(#clip20_410_561334ff9e96-037a-487c-a85d-e363a8799c7a)"><rect id="Container_5" x="384" y="191" width="335" height="346" rx="8" fill="#F2F2F2"/><rect id="Background_9" x="633" y="234" width="70" height="81" rx="8" fill="white"/><g id="Profile Info"><circle id="Avatar_7" cx="668" cy="265" r="16" fill="#C7D1D9"/><rect id="Name_13" x="643" y="285" width="50" height="6" rx="3" fill="#C7D1D9"/><rect id="Name_14" x="651" y="295" width="34" height="6" rx="3" fill="#C7D1D9"/></g><path id="Header" d="M384 199C384 194.582 387.582 191 392 191H711C715.418 191 719 194.582 719 199V218H384V199Z" fill="#C5CFD6"/><g id="Buttons"><circle id="buttons" cx="397" cy="205" r="4" fill="#F2F2F2"/><circle id="buttons_2" cx="409" cy="205" r="4" fill="#F2F2F2"/><circle id="buttons_3" cx="421" cy="205" r="4" fill="#F2F2F2"/></g><g id="Components" clip-path="url(#clip21_410_561334ff9e96-037a-487c-a85d-e363a8799c7a)"><rect id="Background_10" x="633" y="323" width="70" height="194" rx="8" fill="white"/><g id="Rows_3" clip-path="url(#clip22_410_561334ff9e96-037a-487c-a85d-e363a8799c7a)"><rect id="Data" x="651" y="341" width="34" height="26" rx="4" fill="#C7D1D9"/><rect id="Data_2" x="651" y="375" width="34" height="25" rx="4" fill="#AFB9C5"/><rect id="Data_3" x="651" y="408" width="34" height="25" rx="4" fill="#C7D1D9"/><rect id="Data_4" x="651" y="474" width="34" height="25" rx="4" fill="#C7D1D9"/><rect id="Data_5" x="651" y="441" width="34" height="25" rx="4" fill="#C5CFD6"/></g></g><g id="Rows_4" clip-path="url(#clip23_410_561334ff9e96-037a-487c-a85d-e363a8799c7a)"><g id="Row_9" clip-path="url(#clip24_410_561334ff9e96-037a-487c-a85d-e363a8799c7a)"><rect id="Container_6" x="400" y="235" width="225" height="47" rx="4" fill="white"/><g id="Text Stuff_3" clip-path="url(#clip25_410_561334ff9e96-037a-487c-a85d-e363a8799c7a)"><rect id="Label_5" x="409" y="249.1" width="167" height="7.05" rx="3" fill="#C7D1D9"/><rect id="Label_6" x="409" y="260.85" width="112.096" height="7.05" rx="3" fill="#C7D1D9"/></g><g id="Check_3"><circle id="Background_11" cx="600.954" cy="258.5" r="7" fill="#C7D1D9"/><circle id="Indicator_3" cx="600.954" cy="258.5" r="3" fill="#F2F2F2"/></g></g><g id="Row_10" clip-path="url(#clip26_410_561334ff9e96-037a-487c-a85d-e363a8799c7a)"><rect id="Container_7" x="400" y="290" width="225" height="39" rx="4" fill="white"/><g id="Text Stuff_4" clip-path="url(#clip27_410_561334ff9e96-037a-487c-a85d-e363a8799c7a)"><rect id="Label_7" x="409" y="301.7" width="167" height="5.85" rx="2.925" fill="#C7D1D9"/><rect id="Label_8" x="409" y="311.45" width="112.096" height="5.85" rx="2.925" fill="#C7D1D9"/></g><g id="Check_4"><circle id="Background_12" cx="600.954" cy="309.5" r="7" fill="#C7D1D9"/><circle id="Indicator_4" cx="600.954" cy="309.5" r="3" fill="#F2F2F2"/></g></g><g id="Row_11" clip-path="url(#clip28_410_561334ff9e96-037a-487c-a85d-e363a8799c7a)"><rect id="Container_8" x="400" y="337" width="225" height="39" rx="4" fill="white"/><g id="Text Stuff_5" clip-path="url(#clip29_410_561334ff9e96-037a-487c-a85d-e363a8799c7a)"><rect id="Label_9" x="409" y="348.7" width="167" height="5.85" rx="2.925" fill="#C7D1D9"/><rect id="Label_10" x="409" y="358.45" width="112.096" height="5.85" rx="2.925" fill="#C7D1D9"/></g><g id="Check_5"><circle id="Background_13" cx="600.954" cy="356.5" r="7" fill="#C7D1D9"/><circle id="Indicator_5" cx="600.954" cy="356.5" r="3" fill="#AFB9C5"/></g></g><g id="Row_12" clip-path="url(#clip30_410_561334ff9e96-037a-487c-a85d-e363a8799c7a)"><rect id="Container_9" x="400" y="478" width="225" height="39" rx="4" fill="white"/><g id="Text Stuff_6" clip-path="url(#clip31_410_561334ff9e96-037a-487c-a85d-e363a8799c7a)"><rect id="Label_11" x="409" y="489.7" width="167" height="5.85" rx="2.925" fill="#C7D1D9"/><rect id="Label_12" x="409" y="499.45" width="112.096" height="5.85" rx="2.925" fill="#C7D1D9"/></g><g id="Check_6"><circle id="Background_14" cx="600.954" cy="497.5" r="7" fill="#C7D1D9"/><circle id="Indicator_6" cx="600.954" cy="497.5" r="3" fill="#F2F2F2"/></g></g><g id="Row_13" clip-path="url(#clip32_410_561334ff9e96-037a-487c-a85d-e363a8799c7a)"><rect id="Container_10" x="400" y="431" width="225" height="39" rx="4" fill="white"/><g id="Text Stuff_7" clip-path="url(#clip33_410_561334ff9e96-037a-487c-a85d-e363a8799c7a)"><rect id="Label_13" x="409" y="442.7" width="167" height="5.85" rx="2.925" fill="#C7D1D9"/><rect id="Label_14" x="409" y="452.45" width="112.096" height="5.85" rx="2.925" fill="#C7D1D9"/></g><g id="Check_7"><circle id="Background_15" cx="600.954" cy="450.5" r="7" fill="#C7D1D9"/><circle id="Indicator_7" cx="600.954" cy="450.5" r="3" fill="#F2F2F2"/></g></g><g id="Row_14" clip-path="url(#clip34_410_561334ff9e96-037a-487c-a85d-e363a8799c7a)"><rect id="Container_11" x="400" y="384" width="225" height="39" rx="4" fill="white"/><g id="Text Stuff_8" clip-path="url(#clip35_410_561334ff9e96-037a-487c-a85d-e363a8799c7a)"><rect id="Label_15" x="409" y="395.7" width="167" height="5.85" rx="2.925" fill="#C7D1D9"/><rect id="Label_16" x="409" y="405.45" width="112.096" height="5.85" rx="2.925" fill="#C7D1D9"/></g><g id="Check_8"><circle id="Background_16" cx="600.954" cy="403.5" r="7" fill="#C7D1D9"/><circle id="Indicator_8" cx="600.954" cy="403.5" r="3" fill="#F2F2F2"/></g></g></g></g><g id="Graph"><rect id="Value" x="520" y="146" width="6" height="25" rx="3" fill="#C7D1D9"/><rect id="Value_2" x="534" y="130" width="6" height="41" rx="3" fill="#C7D1D9"/><rect id="Value_3" x="548" y="122" width="6" height="49" rx="3" fill="#C7D1D9"/><rect id="Value_4" x="562" y="130" width="6" height="41" rx="3" fill="#C7D1D9"/><rect id="Value_5" x="576" y="114" width="6" height="57" rx="3" fill="#C5CFD6"/></g><g id="Chart"><path id="Value_6" fill-rule="evenodd" clip-rule="evenodd" d="M838.766 504.179C836.845 506.219 834.123 507.5 831.095 507.5C825.278 507.5 820.562 502.799 820.562 497C820.562 491.201 825.278 486.5 831.095 486.5V467C814.546 467 801 480.503 801 497C801 513.497 814.546 527 831.095 527C839.788 527 847.645 523.334 853 517.502L838.766 504.179Z" fill="#F2F2F2"/><path id="Value_7" fill-rule="evenodd" clip-rule="evenodd" d="M831 467V486.5C836.799 486.5 841.5 491.201 841.5 497H861C861 480.503 847.497 467 831 467Z" fill="#AFB9C5"/><path id="Value_8" fill-rule="evenodd" clip-rule="evenodd" d="M841.097 497C841.097 500.407 839.492 503.435 837 505.391L849.262 521C856.399 515.412 861 506.749 861 497H841.097Z" fill="#C5CFD6"/></g><g id="Chart_2"><path id="Value_9" fill-rule="evenodd" clip-rule="evenodd" d="M170.051 259.504C168.573 261.068 166.479 262.05 164.15 262.05C159.675 262.05 156.048 258.446 156.048 254C156.048 249.554 159.675 245.95 164.15 245.95V231C151.42 231 141 241.352 141 254C141 266.648 151.42 277 164.15 277C170.837 277 176.88 274.189 181 269.718L170.051 259.504Z" fill="#F2F2F2"/><path id="Value_10" fill-rule="evenodd" clip-rule="evenodd" d="M164 231V245.95C168.446 245.95 172.05 249.554 172.05 254H187C187 241.352 176.648 231 164 231Z" fill="#AFB9C5"/><path id="Value_11" fill-rule="evenodd" clip-rule="evenodd" d="M172.073 254C172.073 256.555 170.869 258.827 169 260.293L178.196 272C183.55 267.809 187 261.312 187 254H172.073Z" fill="#C5CFD6"/></g><g id="Image"><path id="Fill 35" fill-rule="evenodd" clip-rule="evenodd" d="M866.007 240.986C866.003 240.996 865.999 241.006 865.993 241.018C865.999 241.008 866.007 240.968 866.007 240.986" fill="#C5CFD6"/><path id="Fill 37" fill-rule="evenodd" clip-rule="evenodd" d="M865.998 241.001C865.998 241.003 865.996 241.007 865.996 241.011C865.996 241.001 866.014 240.971 865.998 241.001" fill="#C5CFD6"/><path id="Fill 39" fill-rule="evenodd" clip-rule="evenodd" d="M866.067 240.832C866.053 240.872 866.035 240.91 866.019 240.95C866.027 240.93 866.035 240.914 866.043 240.894C865.835 241.414 865.967 241.076 866.067 240.832" fill="#C5CFD6"/><path id="Fill 41" fill-rule="evenodd" clip-rule="evenodd" d="M866.022 240.953C866.014 240.971 866.006 240.991 865.998 241.009C865.94 241.121 866.022 240.953 866.022 240.953" fill="#C5CFD6"/><path id="Fill 45" fill-rule="evenodd" clip-rule="evenodd" d="M865.999 241.002C865.999 241 865.999 241 866.001 240.998C865.999 241 865.999 241 865.999 241.002" fill="#C5CFD6"/><path id="Fill 47" fill-rule="evenodd" clip-rule="evenodd" d="M865.99 241.016C865.978 241.04 866.046 240.924 865.99 241.016Z" fill="#C5CFD6"/><path id="Fill 49" fill-rule="evenodd" clip-rule="evenodd" d="M865.998 241.002L866.002 240.998C866 241 866 241.002 865.998 241.002" fill="#C5CFD6"/><rect id="Photo Background" x="818" y="189" width="95" height="63" rx="4" fill="#C5CFD6"/><path id="Mountains" fill-rule="evenodd" clip-rule="evenodd" d="M854 207L826 252H882L854 207Z" fill="#AFB9C5"/><path id="Mountains_2" fill-rule="evenodd" clip-rule="evenodd" d="M881.5 219L857 252H906L881.5 219Z" fill="#AFB9C5"/><circle id="Sun" cx="892" cy="210" r="9" fill="white"/></g><g id="Image_2"><path id="Fill 35_2" fill-rule="evenodd" clip-rule="evenodd" d="M218.993 556.986C218.997 556.996 219.001 557.006 219.007 557.018C219.001 557.008 218.993 556.968 218.993 556.986" fill="#C5CFD6"/><path id="Fill 37_2" fill-rule="evenodd" clip-rule="evenodd" d="M219.002 557.001C219.002 557.003 219.004 557.007 219.004 557.011C219.004 557.001 218.986 556.971 219.002 557.001" fill="#C5CFD6"/><path id="Fill 39_2" fill-rule="evenodd" clip-rule="evenodd" d="M218.933 556.832C218.947 556.872 218.965 556.91 218.981 556.95C218.973 556.93 218.965 556.914 218.957 556.894C219.165 557.414 219.033 557.076 218.933 556.832" fill="#C5CFD6"/><path id="Fill 41_2" fill-rule="evenodd" clip-rule="evenodd" d="M218.978 556.953C218.986 556.971 218.994 556.991 219.002 557.009C219.06 557.121 218.978 556.953 218.978 556.953" fill="#C5CFD6"/><path id="Fill 45_2" fill-rule="evenodd" clip-rule="evenodd" d="M219.001 557.002C219.001 557 219.001 557 218.999 556.998C219.001 557 219.001 557 219.001 557.002" fill="#C5CFD6"/><path id="Fill 47_2" fill-rule="evenodd" clip-rule="evenodd" d="M219.01 557.016C219.022 557.04 218.954 556.924 219.01 557.016Z" fill="#C5CFD6"/><path id="Fill 49_2" fill-rule="evenodd" clip-rule="evenodd" d="M219.002 557.002L218.998 556.998C219 557 219 557.002 219.002 557.002" fill="#C5CFD6"/><rect id="Photo Background_2" width="142" height="94" rx="4" transform="matrix(-1 0 0 1 290 480)" fill="#C7D1D9"/><path id="Mountains_3" fill-rule="evenodd" clip-rule="evenodd" d="M237.274 507L278.329 574H196.219L237.274 507Z" fill="#AFB9C5"/><path id="Mountains_4" fill-rule="evenodd" clip-rule="evenodd" d="M194.944 524.947L231.239 574H158.649L194.944 524.947Z" fill="#C5CFD6"/><circle id="Sun_2" cx="13.5" cy="13.5" r="13.5" transform="matrix(-1 0 0 1 193 498)" fill="white"/></g></g><defs><clipPath id="clip0_410_561334ff9e96-037a-487c-a85d-e363a8799c7a"><rect width="147" height="280" fill="white" transform="translate(723 91)"/></clipPath><clipPath id="clip1_410_561334ff9e96-037a-487c-a85d-e363a8799c7a"><rect width="119" height="189" fill="white" transform="translate(737 119)"/></clipPath><clipPath id="clip2_410_561334ff9e96-037a-487c-a85d-e363a8799c7a"><rect width="119" height="51" fill="white" transform="translate(737 119)"/></clipPath><clipPath id="clip3_410_561334ff9e96-037a-487c-a85d-e363a8799c7a"><rect width="61" height="20.4" fill="white" transform="translate(746 134.228)"/></clipPath><clipPath id="clip4_410_561334ff9e96-037a-487c-a85d-e363a8799c7a"><rect width="119" height="38" fill="white" transform="translate(737 178)"/></clipPath><clipPath id="clip5_410_561334ff9e96-037a-487c-a85d-e363a8799c7a"><rect width="61" height="15.5897" fill="white" transform="translate(776 189.314)"/></clipPath><clipPath id="clip6_410_561334ff9e96-037a-487c-a85d-e363a8799c7a"><rect width="119" height="38" fill="white" transform="translate(737 224)"/></clipPath><clipPath id="clip7_410_561334ff9e96-037a-487c-a85d-e363a8799c7a"><rect width="61" height="15.5897" fill="white" transform="translate(746 235.314)"/></clipPath><clipPath id="clip8_410_561334ff9e96-037a-487c-a85d-e363a8799c7a"><rect width="119" height="38" fill="white" transform="translate(737 270)"/></clipPath><clipPath id="clip9_410_561334ff9e96-037a-487c-a85d-e363a8799c7a"><rect width="61" height="15.5897" fill="white" transform="translate(776 281.314)"/></clipPath><clipPath id="clip10_410_561334ff9e96-037a-487c-a85d-e363a8799c7a"><rect width="159" height="302" fill="white" transform="translate(219 114)"/></clipPath><clipPath id="clip11_410_561334ff9e96-037a-487c-a85d-e363a8799c7a"><rect width="131" height="204" fill="white" transform="translate(233 142)"/></clipPath><clipPath id="clip12_410_561334ff9e96-037a-487c-a85d-e363a8799c7a"><rect width="131" height="54" fill="white" transform="translate(233 142)"/></clipPath><clipPath id="clip13_410_561334ff9e96-037a-487c-a85d-e363a8799c7a"><rect width="73" height="21.6" fill="white" transform="translate(272 158.2)"/></clipPath><clipPath id="clip14_410_561334ff9e96-037a-487c-a85d-e363a8799c7a"><rect width="131" height="42" fill="white" transform="translate(233 204)"/></clipPath><clipPath id="clip15_410_561334ff9e96-037a-487c-a85d-e363a8799c7a"><rect width="73" height="16.8" fill="white" transform="translate(272 216.6)"/></clipPath><clipPath id="clip16_410_561334ff9e96-037a-487c-a85d-e363a8799c7a"><rect width="131" height="42" fill="white" transform="translate(233 254)"/></clipPath><clipPath id="clip17_410_561334ff9e96-037a-487c-a85d-e363a8799c7a"><rect width="73" height="16.8" fill="white" transform="translate(272 266.6)"/></clipPath><clipPath id="clip18_410_561334ff9e96-037a-487c-a85d-e363a8799c7a"><rect width="131" height="42" fill="white" transform="translate(233 304)"/></clipPath><clipPath id="clip19_410_561334ff9e96-037a-487c-a85d-e363a8799c7a"><rect width="73" height="16.8" fill="white" transform="translate(272 316.6)"/></clipPath><clipPath id="clip20_410_561334ff9e96-037a-487c-a85d-e363a8799c7a"><rect width="335" height="346" fill="white" transform="translate(384 191)"/></clipPath><clipPath id="clip21_410_561334ff9e96-037a-487c-a85d-e363a8799c7a"><rect width="70" height="194" fill="white" transform="translate(633 323)"/></clipPath><clipPath id="clip22_410_561334ff9e96-037a-487c-a85d-e363a8799c7a"><rect width="34" height="158" fill="white" transform="translate(651 341)"/></clipPath><clipPath id="clip23_410_561334ff9e96-037a-487c-a85d-e363a8799c7a"><rect width="225" height="282" fill="white" transform="translate(400 235)"/></clipPath><clipPath id="clip24_410_561334ff9e96-037a-487c-a85d-e363a8799c7a"><rect width="225" height="47" fill="white" transform="translate(400 235)"/></clipPath><clipPath id="clip25_410_561334ff9e96-037a-487c-a85d-e363a8799c7a"><rect width="167" height="18.8" fill="white" transform="translate(409 249.1)"/></clipPath><clipPath id="clip26_410_561334ff9e96-037a-487c-a85d-e363a8799c7a"><rect width="225" height="39" fill="white" transform="translate(400 290)"/></clipPath><clipPath id="clip27_410_561334ff9e96-037a-487c-a85d-e363a8799c7a"><rect width="167" height="15.6" fill="white" transform="translate(409 301.7)"/></clipPath><clipPath id="clip28_410_561334ff9e96-037a-487c-a85d-e363a8799c7a"><rect width="225" height="39" fill="white" transform="translate(400 337)"/></clipPath><clipPath id="clip29_410_561334ff9e96-037a-487c-a85d-e363a8799c7a"><rect width="167" height="15.6" fill="white" transform="translate(409 348.7)"/></clipPath><clipPath id="clip30_410_561334ff9e96-037a-487c-a85d-e363a8799c7a"><rect width="225" height="39" fill="white" transform="translate(400 478)"/></clipPath><clipPath id="clip31_410_561334ff9e96-037a-487c-a85d-e363a8799c7a"><rect width="167" height="15.6" fill="white" transform="translate(409 489.7)"/></clipPath><clipPath id="clip32_410_561334ff9e96-037a-487c-a85d-e363a8799c7a"><rect width="225" height="39" fill="white" transform="translate(400 431)"/></clipPath><clipPath id="clip33_410_561334ff9e96-037a-487c-a85d-e363a8799c7a"><rect width="167" height="15.6" fill="white" transform="translate(409 442.7)"/></clipPath><clipPath id="clip34_410_561334ff9e96-037a-487c-a85d-e363a8799c7a"><rect width="225" height="39" fill="white" transform="translate(400 384)"/></clipPath><clipPath id="clip35_410_561334ff9e96-037a-487c-a85d-e363a8799c7a"><rect width="167" height="15.6" fill="white" transform="translate(409 395.7)"/></clipPath></defs></g><g id="Master/Pose/Standing" transform="translate(374 214) scale(1 1)"><g id="Master/Pose/Standing"><g id="Head/Front" transform="translate(82 0) scale(1 1)"><g id="Head/Front/Turban 1"><g id="Head"><path id="SKIN" fill-rule="evenodd" clip-rule="evenodd" d="M92.1433 40.1339C97.9382 50.9351 97.2496 78.333 89.7603 80.2635C86.7737 81.0333 80.4113 79.1476 73.9359 75.2446L78 104H54L62.2616 65.4893C57.6541 60.0807 54.5357 53.4525 55.0568 46.0255C56.5583 24.625 86.3485 29.3328 92.1433 40.1339Z" fill="#dcae92"/></g><g id="Turban"><path id="Turban_2" fill-rule="evenodd" clip-rule="evenodd" d="M90.5762 35.9456C90.366 34.6405 90.7823 33.9999 85.5348 30.3231C80.2873 26.6463 71.8149 22.3098 63.2817 24.1971C52.2076 26.6463 47.8091 33.9511 43.5387 37.5024C39.689 40.7039 35.8265 41.0773 33.5374 45.0498C31.2483 49.0224 30.0304 60.4512 32.0209 64.9949C34.7666 71.2628 40.1813 72.9507 44.134 74.7565C50.9128 77.8535 60.4946 74.5827 60.7267 74.0409C62.5222 69.8497 72.187 58.0268 78.0001 53.0595C82.2747 49.4069 91.5631 42.0711 90.5762 35.9456Z" fill="#5C63AB"/><mask id="mask0_410_62067e13f44f-a732-4400-86d2-ab6e2b266b49" style="mask-type:luminance" maskUnits="userSpaceOnUse" x="31" y="23" width="60" height="54" fill="#ffffff"><path id="Turban_3" fill-rule="evenodd" clip-rule="evenodd" d="M90.5762 35.9456C90.366 34.6405 90.7823 33.9999 85.5348 30.3231C80.2873 26.6463 71.8149 22.3098 63.2817 24.1971C52.2076 26.6463 47.8091 33.9511 43.5387 37.5024C39.689 40.7039 35.8265 41.0773 33.5374 45.0498C31.2483 49.0224 30.0304 60.4512 32.0209 64.9949C34.7666 71.2628 40.1813 72.9507 44.134 74.7565C50.9128 77.8535 60.4946 74.5827 60.7267 74.0409C62.5222 69.8497 72.187 58.0268 78.0001 53.0595C82.2747 49.4069 91.5631 42.0711 90.5762 35.9456Z" fill="#ffffff"/></mask><g mask="url(#mask0_410_62067e13f44f-a732-4400-86d2-ab6e2b266b49)"><path id="SHade" fill-rule="evenodd" clip-rule="evenodd" d="M57.6336 66.223C46.1572 52.0695 43.457 35 43.457 35L40 37.1865C40 37.1865 44.2517 55.8399 57.6336 66.223ZM62 74C43.4277 57.6811 38.9984 39.3421 38.9984 39.3421L35 40.521C35 40.521 40.51 61.0284 62 74Z" fill="black" fill-opacity="0.2"/></g></g></g></g><g id="Lower Body/Standing" transform="translate(0 187) scale(1 1)"><g id="Lower Body/Standing/Skinny Jeans"><path id="Leg" fill-rule="evenodd" clip-rule="evenodd" d="M128 0L164.255 127.227L190.707 221H210L181.891 0H128Z" fill="#2a0752"/><path id="Leg" fill-rule="evenodd" clip-rule="evenodd" d="M118.304 0C117.466 65.5742 114.606 101.34 113.726 107.298C112.845 113.256 99.5322 151.156 73.7864 221H93.7727C126.549 153.997 144.846 116.096 148.663 107.298C152.479 98.4996 164.259 62.7336 182 0H118.304Z" fill="#342a83"/><path id="Shoe" fill-rule="evenodd" clip-rule="evenodd" d="M72 239L73 218L94 218C108.936 228.5 133 235 133 235V239H95L82 237V239H72Z" fill="#191847"/><path id="Shoe_2" fill-rule="evenodd" clip-rule="evenodd" d="M188 239L189 218L210 218C224.936 228.5 249 235 249 235V239H211L198 237V239H188Z" fill="#191847"/></g></g><g id="Upper Body" transform="translate(22 82) scale(1 1)"><g id="Upper Body/Trench Coat"><path id="SKIN" fill-rule="evenodd" clip-rule="evenodd" d="M24.0271 138.201C27.9454 132.855 51.5391 75.3752 51.5391 75.3752L69.1504 78.564C69.1504 78.564 38.4903 139.405 36.3073 142.902C33.4714 147.445 35.5707 155.142 36.9942 160.361C37.2144 161.169 37.4184 161.917 37.5855 162.585C34.1826 163.44 32.9683 161.467 31.6882 159.387C30.2422 157.037 28.7122 154.551 23.8497 155.85C21.9711 156.351 20.1598 157.017 18.3901 157.667C12.2774 159.912 6.66196 161.974 0.486925 156.477C-0.492045 155.606 -1.24581 152.841 2.01427 151.36C10.1363 147.669 22.1115 140.815 24.0271 138.201ZM227.788 108.555L195.89 85.1316L188.838 102.563L220.426 115.661C229.359 126.155 234.355 130.53 235.412 128.785C236.304 127.314 235.607 125.937 234.965 124.669C234.465 123.681 233.998 122.758 234.342 121.909C235.126 119.97 241.127 120.174 246.814 120.611C252.5 121.048 250.843 118.518 249.472 117.269C243.667 113.794 236.439 110.89 227.788 108.555Z" fill="#dcae92"/><path id="Back Arm" fill-rule="evenodd" clip-rule="evenodd" d="M138.264 2.0415L127.569 6.42763C127.681 9.22099 127.67 13.1947 127.658 17.7472C127.618 32.036 127.562 52.0268 131.254 59.1216C144.043 83.7012 170.303 96.5048 199.551 110.765C203.471 112.676 207.445 114.614 211.448 116.61L219.495 100.182C218.563 99.521 217.639 98.8566 216.723 98.1885C217.987 97.7455 219.042 96.7451 219.503 95.3772C220.296 93.022 219.03 90.4694 216.675 89.6759C211.889 88.0632 207.424 87.3833 203.32 87.678C173.349 62.4233 153.173 32.8583 138.264 2.0415Z" fill="#c5cfd6"/><path id="Shirt" fill-rule="evenodd" clip-rule="evenodd" d="M90 113.91C90 113.91 137.157 119.09 164.236 113.91C166.473 113.482 166.375 103.84 165.337 101.207C149.185 60.2019 138.56 30.184 138.56 1.70264C134.115 4.02478 123 2.39864 123 2.39864C103.086 31.7496 93.9325 65.4265 90 113.91Z" fill="#191847"/><path id="Coat Front" fill-rule="evenodd" clip-rule="evenodd" d="M30.1925 114.406C57.9812 34.9799 114.976 0 114.976 0H116.532H120.377H126.348C125.06 17.0357 131.113 41.826 138.134 70.5842C149.364 116.577 163.071 172.719 153.191 223.518C141.042 226.231 126.766 224.379 111.312 222.374C89.0082 219.479 64.2489 216.267 39.8828 226C40.8222 205.65 52.7036 183.124 64.5315 160.699C72.0289 146.484 79.5048 132.31 84.1585 118.758C83.0909 117.753 82.5343 116.247 82.8078 114.696L83.3288 111.741C83.6818 109.739 85.3078 108.281 87.2277 108.053C87.5633 106.553 87.8527 105.063 88.0917 103.583C89.3128 96.0246 88.5333 88.5548 87.7625 81.169L87.7624 81.1688C87.3392 77.1137 86.9187 73.084 86.8334 69.0787C73.4403 81.0101 57.228 101.813 43.5479 137.871L24.6611 132.313C25.3833 129.63 26.1401 126.991 26.9288 124.396C24.7427 123.191 22.1654 117.47 24.0066 116.516C25.952 115.508 28.0161 114.807 30.1925 114.406Z" fill="#f2f2f2"/><path id="Shade Lapel" fill-rule="evenodd" clip-rule="evenodd" d="M119.106 1L113.947 16.8654L124.336 28.759L114.947 38.1055L137.662 77L109.884 38.1832L119.106 28.759L109.884 18.2485L119.106 1Z" fill="black" fill-opacity="0.1"/><path id="Buttons" fill-rule="evenodd" clip-rule="evenodd" d="M135 88C135 90.2091 133.209 92 131 92C128.791 92 127 90.2091 127 88C127 85.7909 128.791 84 131 84C133.209 84 135 85.7909 135 88ZM140 111C140 113.209 138.209 115 136 115C133.791 115 132 113.209 132 111C132 108.791 133.791 107 136 107C138.209 107 140 108.791 140 111ZM137 138C139.209 138 141 136.209 141 134C141 131.791 139.209 130 137 130C134.791 130 133 131.791 133 134C133 136.209 134.791 138 137 138Z" fill="black" fill-opacity="0.4"/></g></g></g></g></g></g></g></svg>